<mxfile host="app.diagrams.net" modified="2021-01-18T02:25:39.109Z" agent="5.0 (Windows NT 10.0; Win64; x64) AppleWebKit/537.36 (KHTML, like Gecko) Chrome/87.0.4259.3 Safari/537.36" etag="Yh8fd-eq6uQtAx4slZb-" version="14.2.4" type="github">
  <diagram name="Page-1" id="9361dd3d-8414-5efd-6122-117bd74ce7a7">
    <mxGraphModel dx="1621" dy="1454" grid="1" gridSize="10" guides="1" tooltips="1" connect="1" arrows="1" fold="1" page="0" pageScale="1.5" pageWidth="826" pageHeight="1169" background="#ffffff" math="0" shadow="0">
      <root>
        <mxCell id="0" />
        <mxCell id="1" parent="0" />
        <mxCell id="-TK9tcclzxAQYpOmF-7F-209" value="" style="endArrow=classic;html=1;strokeColor=#000000;strokeWidth=2;" edge="1" parent="1">
          <mxGeometry width="50" height="50" relative="1" as="geometry">
            <mxPoint y="-620" as="sourcePoint" />
            <mxPoint x="1170" y="-620" as="targetPoint" />
          </mxGeometry>
        </mxCell>
        <mxCell id="-TK9tcclzxAQYpOmF-7F-151" value="" style="endArrow=classic;html=1;strokeColor=#000000;strokeWidth=2;" edge="1" parent="1">
          <mxGeometry width="50" height="50" relative="1" as="geometry">
            <mxPoint y="-540" as="sourcePoint" />
            <mxPoint x="1170" y="-540" as="targetPoint" />
          </mxGeometry>
        </mxCell>
        <mxCell id="-TK9tcclzxAQYpOmF-7F-131" value="" style="endArrow=none;html=1;strokeColor=#000000;strokeWidth=2;rounded=1;exitX=1;exitY=0.5;exitDx=0;exitDy=0;" edge="1" parent="1" source="-TK9tcclzxAQYpOmF-7F-140">
          <mxGeometry width="50" height="50" relative="1" as="geometry">
            <mxPoint x="270" y="-540" as="sourcePoint" />
            <mxPoint x="360" y="-540" as="targetPoint" />
          </mxGeometry>
        </mxCell>
        <mxCell id="-TK9tcclzxAQYpOmF-7F-89" value="&lt;b&gt;PD&lt;/b&gt;" style="rounded=1;whiteSpace=wrap;html=1;align=left;" vertex="1" parent="1">
          <mxGeometry y="-510" width="1120" height="30" as="geometry" />
        </mxCell>
        <mxCell id="-TK9tcclzxAQYpOmF-7F-90" value="&lt;b&gt;UX&lt;/b&gt;" style="rounded=1;whiteSpace=wrap;html=1;align=left;" vertex="1" parent="1">
          <mxGeometry y="-460" width="1120" height="30" as="geometry" />
        </mxCell>
        <mxCell id="-TK9tcclzxAQYpOmF-7F-91" value="&lt;b&gt;UI&lt;/b&gt;" style="rounded=1;whiteSpace=wrap;html=1;align=left;" vertex="1" parent="1">
          <mxGeometry y="-410" width="1120" height="30" as="geometry" />
        </mxCell>
        <mxCell id="-TK9tcclzxAQYpOmF-7F-92" value="&lt;b&gt;TL&lt;/b&gt;" style="rounded=1;whiteSpace=wrap;html=1;align=left;" vertex="1" parent="1">
          <mxGeometry y="-360" width="1120" height="30" as="geometry" />
        </mxCell>
        <mxCell id="-TK9tcclzxAQYpOmF-7F-93" value="&lt;b&gt;技术PM&lt;/b&gt;" style="rounded=1;whiteSpace=wrap;html=1;align=left;" vertex="1" parent="1">
          <mxGeometry y="-310" width="1120" height="30" as="geometry" />
        </mxCell>
        <mxCell id="-TK9tcclzxAQYpOmF-7F-94" value="&lt;b&gt;开发&lt;/b&gt;" style="rounded=1;whiteSpace=wrap;html=1;align=left;" vertex="1" parent="1">
          <mxGeometry y="-260" width="1120" height="30" as="geometry" />
        </mxCell>
        <mxCell id="-TK9tcclzxAQYpOmF-7F-95" value="&lt;b&gt;测试&lt;/b&gt;" style="rounded=1;whiteSpace=wrap;html=1;align=left;" vertex="1" parent="1">
          <mxGeometry y="-210" width="1120" height="30" as="geometry" />
        </mxCell>
        <mxCell id="-TK9tcclzxAQYpOmF-7F-96" value="&lt;b&gt;运营&lt;/b&gt;" style="rounded=1;whiteSpace=wrap;html=1;align=left;" vertex="1" parent="1">
          <mxGeometry y="-160" width="1120" height="30" as="geometry" />
        </mxCell>
        <mxCell id="-TK9tcclzxAQYpOmF-7F-97" value="&lt;b&gt;PMO&lt;/b&gt;" style="rounded=1;whiteSpace=wrap;html=1;align=left;" vertex="1" parent="1">
          <mxGeometry y="-110" width="1120" height="30" as="geometry" />
        </mxCell>
        <mxCell id="-TK9tcclzxAQYpOmF-7F-98" value="&lt;b&gt;CEO&lt;/b&gt;" style="rounded=1;whiteSpace=wrap;html=1;align=left;" vertex="1" parent="1">
          <mxGeometry y="-60" width="1120" height="30" as="geometry" />
        </mxCell>
        <mxCell id="-TK9tcclzxAQYpOmF-7F-99" value="&lt;b&gt;HR&lt;/b&gt;" style="rounded=1;whiteSpace=wrap;html=1;align=left;" vertex="1" parent="1">
          <mxGeometry y="-10" width="1120" height="30" as="geometry" />
        </mxCell>
        <mxCell id="-TK9tcclzxAQYpOmF-7F-100" value="&lt;b&gt;项目决策小组&lt;/b&gt;" style="rounded=1;whiteSpace=wrap;html=1;align=left;" vertex="1" parent="1">
          <mxGeometry y="90" width="1120" height="30" as="geometry" />
        </mxCell>
        <mxCell id="-TK9tcclzxAQYpOmF-7F-101" value="&lt;b&gt;管理团队&lt;/b&gt;" style="rounded=1;whiteSpace=wrap;html=1;align=left;" vertex="1" parent="1">
          <mxGeometry y="40" width="1120" height="30" as="geometry" />
        </mxCell>
        <mxCell id="-TK9tcclzxAQYpOmF-7F-135" value="&lt;b&gt;&lt;font color=&quot;#ffffff&quot; style=&quot;font-size: 14px&quot;&gt;战略规划&lt;/font&gt;&lt;/b&gt;" style="rounded=1;whiteSpace=wrap;html=1;fillColor=#666666;gradientColor=#666666;" vertex="1" parent="1">
          <mxGeometry x="40" y="-560" width="80" height="40" as="geometry" />
        </mxCell>
        <mxCell id="-TK9tcclzxAQYpOmF-7F-137" value="&lt;b&gt;&lt;font style=&quot;font-size: 14px&quot; color=&quot;#ffffff&quot;&gt;项目立项&lt;/font&gt;&lt;/b&gt;" style="rounded=1;whiteSpace=wrap;html=1;fillColor=#666666;gradientColor=#666666;" vertex="1" parent="1">
          <mxGeometry x="170" y="-560" width="80" height="40" as="geometry" />
        </mxCell>
        <mxCell id="-TK9tcclzxAQYpOmF-7F-140" value="&lt;b&gt;&lt;font style=&quot;font-size: 14px&quot; color=&quot;#ffffff&quot;&gt;产品规划&lt;/font&gt;&lt;/b&gt;" style="rounded=1;whiteSpace=wrap;html=1;fillColor=#666666;gradientColor=#666666;" vertex="1" parent="1">
          <mxGeometry x="290" y="-560" width="80" height="40" as="geometry" />
        </mxCell>
        <mxCell id="-TK9tcclzxAQYpOmF-7F-142" value="&lt;b&gt;&lt;font style=&quot;font-size: 14px&quot; color=&quot;#ffffff&quot;&gt;需求规划&lt;/font&gt;&lt;/b&gt;" style="rounded=1;whiteSpace=wrap;html=1;fillColor=#666666;gradientColor=#666666;" vertex="1" parent="1">
          <mxGeometry x="420" y="-560" width="80" height="40" as="geometry" />
        </mxCell>
        <mxCell id="-TK9tcclzxAQYpOmF-7F-144" value="&lt;b&gt;&lt;font style=&quot;font-size: 14px&quot; color=&quot;#ffffff&quot;&gt;排期研发&lt;/font&gt;&lt;/b&gt;" style="rounded=1;whiteSpace=wrap;html=1;fillColor=#666666;gradientColor=#666666;" vertex="1" parent="1">
          <mxGeometry x="550" y="-560" width="80" height="40" as="geometry" />
        </mxCell>
        <mxCell id="-TK9tcclzxAQYpOmF-7F-145" value="&lt;b&gt;&lt;font style=&quot;font-size: 14px&quot; color=&quot;#ffffff&quot;&gt;提测发布&lt;/font&gt;&lt;/b&gt;" style="rounded=1;whiteSpace=wrap;html=1;fillColor=#666666;gradientColor=#666666;" vertex="1" parent="1">
          <mxGeometry x="690" y="-560" width="80" height="40" as="geometry" />
        </mxCell>
        <mxCell id="-TK9tcclzxAQYpOmF-7F-146" value="&lt;b&gt;&lt;font style=&quot;font-size: 14px&quot; color=&quot;#ffffff&quot;&gt;交付复盘&lt;/font&gt;&lt;/b&gt;" style="rounded=1;whiteSpace=wrap;html=1;fillColor=#666666;gradientColor=#666666;" vertex="1" parent="1">
          <mxGeometry x="820" y="-560" width="80" height="40" as="geometry" />
        </mxCell>
        <mxCell id="-TK9tcclzxAQYpOmF-7F-147" value="&lt;b&gt;&lt;font style=&quot;font-size: 14px&quot; color=&quot;#ffffff&quot;&gt;线上反馈&lt;/font&gt;&lt;/b&gt;" style="rounded=1;whiteSpace=wrap;html=1;fillColor=#666666;gradientColor=#666666;" vertex="1" parent="1">
          <mxGeometry x="970" y="-560" width="80" height="40" as="geometry" />
        </mxCell>
        <mxCell id="-TK9tcclzxAQYpOmF-7F-148" value="&lt;b&gt;&lt;font style=&quot;font-size: 14px&quot; color=&quot;#ffffff&quot;&gt;规划、立项、需求&lt;/font&gt;&lt;/b&gt;" style="rounded=1;whiteSpace=wrap;html=1;fillColor=#666666;gradientColor=#666666;" vertex="1" parent="1">
          <mxGeometry x="170" y="-640" width="170" height="40" as="geometry" />
        </mxCell>
        <mxCell id="-TK9tcclzxAQYpOmF-7F-149" value="&lt;b&gt;&lt;font style=&quot;font-size: 14px&quot; color=&quot;#ffffff&quot;&gt;研发、上线&lt;/font&gt;&lt;/b&gt;" style="rounded=1;whiteSpace=wrap;html=1;fillColor=#666666;gradientColor=#666666;" vertex="1" parent="1">
          <mxGeometry x="580" y="-640" width="170" height="40" as="geometry" />
        </mxCell>
        <mxCell id="-TK9tcclzxAQYpOmF-7F-150" value="&lt;b&gt;&lt;font style=&quot;font-size: 14px&quot; color=&quot;#ffffff&quot;&gt;复盘反馈&lt;/font&gt;&lt;/b&gt;" style="rounded=1;whiteSpace=wrap;html=1;fillColor=#666666;gradientColor=#666666;" vertex="1" parent="1">
          <mxGeometry x="850" y="-640" width="170" height="40" as="geometry" />
        </mxCell>
        <mxCell id="-TK9tcclzxAQYpOmF-7F-152" value="" style="endArrow=none;dashed=1;html=1;strokeWidth=2;" edge="1" parent="1">
          <mxGeometry width="50" height="50" relative="1" as="geometry">
            <mxPoint x="140" y="160" as="sourcePoint" />
            <mxPoint x="140" y="-560" as="targetPoint" />
          </mxGeometry>
        </mxCell>
        <mxCell id="-TK9tcclzxAQYpOmF-7F-153" value="&lt;b&gt;战略规划&lt;/b&gt;" style="rounded=0;whiteSpace=wrap;html=1;fillColor=#f5f5f5;gradientColor=#b3b3b3;strokeColor=#666666;" vertex="1" parent="1">
          <mxGeometry x="50" y="-110" width="80" height="150" as="geometry" />
        </mxCell>
        <mxCell id="-TK9tcclzxAQYpOmF-7F-154" value="" style="endArrow=none;dashed=1;html=1;strokeWidth=1;entryX=1;entryY=1;entryDx=0;entryDy=0;" edge="1" parent="1">
          <mxGeometry width="50" height="50" relative="1" as="geometry">
            <mxPoint x="250" y="126" as="sourcePoint" />
            <mxPoint x="250" y="-514" as="targetPoint" />
          </mxGeometry>
        </mxCell>
        <mxCell id="-TK9tcclzxAQYpOmF-7F-155" value="" style="endArrow=none;dashed=1;html=1;strokeWidth=1;entryX=1;entryY=1;entryDx=0;entryDy=0;" edge="1" parent="1">
          <mxGeometry width="50" height="50" relative="1" as="geometry">
            <mxPoint x="150" y="125" as="sourcePoint" />
            <mxPoint x="150" y="-515" as="targetPoint" />
          </mxGeometry>
        </mxCell>
        <mxCell id="-TK9tcclzxAQYpOmF-7F-156" value="" style="endArrow=none;dashed=1;html=1;strokeWidth=1;" edge="1" parent="1">
          <mxGeometry width="50" height="50" relative="1" as="geometry">
            <mxPoint x="150" y="-513" as="sourcePoint" />
            <mxPoint x="250" y="-513" as="targetPoint" />
          </mxGeometry>
        </mxCell>
        <mxCell id="-TK9tcclzxAQYpOmF-7F-157" value="&lt;b&gt;项目细节确定&lt;/b&gt;" style="rounded=1;whiteSpace=wrap;html=1;fillColor=#999999;gradientColor=#808080;" vertex="1" parent="1">
          <mxGeometry x="150" y="-510" width="100" height="30" as="geometry" />
        </mxCell>
        <mxCell id="-TK9tcclzxAQYpOmF-7F-158" value="&lt;b&gt;项目细节确定&lt;/b&gt;" style="rounded=1;whiteSpace=wrap;html=1;fillColor=#999999;gradientColor=#808080;" vertex="1" parent="1">
          <mxGeometry x="150" y="-360" width="100" height="30" as="geometry" />
        </mxCell>
        <mxCell id="-TK9tcclzxAQYpOmF-7F-159" value="&lt;b&gt;项目细节确定&lt;/b&gt;" style="rounded=1;whiteSpace=wrap;html=1;fillColor=#999999;gradientColor=#808080;" vertex="1" parent="1">
          <mxGeometry x="150" y="-310" width="100" height="30" as="geometry" />
        </mxCell>
        <mxCell id="-TK9tcclzxAQYpOmF-7F-160" value="&lt;b&gt;项目细节确定&lt;/b&gt;" style="rounded=1;whiteSpace=wrap;html=1;fillColor=#999999;gradientColor=#808080;" vertex="1" parent="1">
          <mxGeometry x="150" y="-160" width="100" height="30" as="geometry" />
        </mxCell>
        <mxCell id="-TK9tcclzxAQYpOmF-7F-161" value="&lt;b&gt;项目细节确定&lt;/b&gt;" style="rounded=1;whiteSpace=wrap;html=1;fillColor=#999999;gradientColor=#808080;" vertex="1" parent="1">
          <mxGeometry x="150" y="-110" width="100" height="30" as="geometry" />
        </mxCell>
        <mxCell id="-TK9tcclzxAQYpOmF-7F-162" value="&lt;b&gt;项目细节确定&lt;/b&gt;" style="rounded=1;whiteSpace=wrap;html=1;gradientColor=#808080;fillColor=#4D4D4D;" vertex="1" parent="1">
          <mxGeometry x="150" y="90" width="100" height="30" as="geometry" />
        </mxCell>
        <mxCell id="-TK9tcclzxAQYpOmF-7F-163" value="" style="endArrow=none;dashed=1;html=1;strokeWidth=1;" edge="1" parent="1">
          <mxGeometry width="50" height="50" relative="1" as="geometry">
            <mxPoint x="150" y="128" as="sourcePoint" />
            <mxPoint x="250" y="128" as="targetPoint" />
          </mxGeometry>
        </mxCell>
        <mxCell id="-TK9tcclzxAQYpOmF-7F-164" value="" style="endArrow=none;dashed=1;html=1;strokeWidth=2;exitX=0.125;exitY=1.34;exitDx=0;exitDy=0;exitPerimeter=0;" edge="1" parent="1">
          <mxGeometry width="50" height="50" relative="1" as="geometry">
            <mxPoint x="270" y="160.20000000000005" as="sourcePoint" />
            <mxPoint x="270" y="-530" as="targetPoint" />
          </mxGeometry>
        </mxCell>
        <mxCell id="-TK9tcclzxAQYpOmF-7F-166" value="&lt;b&gt;&lt;font color=&quot;#ffffff&quot;&gt;批准立项&lt;/font&gt;&lt;/b&gt;" style="rounded=0;whiteSpace=wrap;html=1;gradientColor=#1A1A1A;fillColor=#000000;" vertex="1" parent="1">
          <mxGeometry x="250" y="-60" width="20" height="130" as="geometry" />
        </mxCell>
        <mxCell id="-TK9tcclzxAQYpOmF-7F-167" value="&lt;b&gt;产品规划会&lt;/b&gt;" style="rounded=1;whiteSpace=wrap;html=1;fillColor=#999999;gradientColor=#808080;" vertex="1" parent="1">
          <mxGeometry x="290" y="-510" width="100" height="30" as="geometry" />
        </mxCell>
        <mxCell id="-TK9tcclzxAQYpOmF-7F-168" value="" style="endArrow=none;dashed=1;html=1;strokeWidth=2;exitX=0.125;exitY=1.34;exitDx=0;exitDy=0;exitPerimeter=0;" edge="1" parent="1">
          <mxGeometry width="50" height="50" relative="1" as="geometry">
            <mxPoint x="400" y="160.20000000000005" as="sourcePoint" />
            <mxPoint x="400" y="-530" as="targetPoint" />
          </mxGeometry>
        </mxCell>
        <mxCell id="-TK9tcclzxAQYpOmF-7F-169" value="" style="endArrow=none;dashed=1;html=1;strokeWidth=1;entryX=1;entryY=1;entryDx=0;entryDy=0;" edge="1" parent="1">
          <mxGeometry width="50" height="50" relative="1" as="geometry">
            <mxPoint x="390" y="125" as="sourcePoint" />
            <mxPoint x="390" y="-515" as="targetPoint" />
          </mxGeometry>
        </mxCell>
        <mxCell id="-TK9tcclzxAQYpOmF-7F-170" value="" style="endArrow=none;dashed=1;html=1;strokeWidth=1;" edge="1" parent="1">
          <mxGeometry width="50" height="50" relative="1" as="geometry">
            <mxPoint x="290" y="-514" as="sourcePoint" />
            <mxPoint x="390" y="-514" as="targetPoint" />
          </mxGeometry>
        </mxCell>
        <mxCell id="-TK9tcclzxAQYpOmF-7F-171" value="" style="endArrow=none;dashed=1;html=1;strokeWidth=1;entryX=1;entryY=1;entryDx=0;entryDy=0;" edge="1" parent="1">
          <mxGeometry width="50" height="50" relative="1" as="geometry">
            <mxPoint x="289" y="125" as="sourcePoint" />
            <mxPoint x="289" y="-515" as="targetPoint" />
          </mxGeometry>
        </mxCell>
        <mxCell id="-TK9tcclzxAQYpOmF-7F-172" value="&lt;b&gt;产品规划会&lt;/b&gt;" style="rounded=1;whiteSpace=wrap;html=1;fillColor=#999999;gradientColor=#808080;" vertex="1" parent="1">
          <mxGeometry x="290" y="-360" width="100" height="30" as="geometry" />
        </mxCell>
        <mxCell id="-TK9tcclzxAQYpOmF-7F-173" value="&lt;b&gt;产品规划会&lt;/b&gt;" style="rounded=1;whiteSpace=wrap;html=1;fillColor=#999999;gradientColor=#808080;" vertex="1" parent="1">
          <mxGeometry x="290" y="-310" width="100" height="30" as="geometry" />
        </mxCell>
        <mxCell id="-TK9tcclzxAQYpOmF-7F-174" value="&lt;b&gt;产品规划会&lt;/b&gt;" style="rounded=0;whiteSpace=wrap;html=1;fillColor=#f5f5f5;gradientColor=#b3b3b3;strokeColor=#666666;" vertex="1" parent="1">
          <mxGeometry x="290" y="-160" width="100" height="280" as="geometry" />
        </mxCell>
        <mxCell id="-TK9tcclzxAQYpOmF-7F-175" value="" style="endArrow=none;dashed=1;html=1;strokeWidth=1;" edge="1" parent="1">
          <mxGeometry width="50" height="50" relative="1" as="geometry">
            <mxPoint x="289" y="128" as="sourcePoint" />
            <mxPoint x="389" y="128" as="targetPoint" />
          </mxGeometry>
        </mxCell>
        <mxCell id="-TK9tcclzxAQYpOmF-7F-176" value="" style="endArrow=none;dashed=1;html=1;strokeWidth=2;" edge="1" parent="1">
          <mxGeometry width="50" height="50" relative="1" as="geometry">
            <mxPoint x="526" y="160" as="sourcePoint" />
            <mxPoint x="526" y="-670" as="targetPoint" />
          </mxGeometry>
        </mxCell>
        <mxCell id="-TK9tcclzxAQYpOmF-7F-177" value="&lt;b&gt;PRD&lt;/b&gt;" style="rounded=1;whiteSpace=wrap;html=1;fillColor=#999999;gradientColor=#808080;" vertex="1" parent="1">
          <mxGeometry x="410" y="-510" width="50" height="30" as="geometry" />
        </mxCell>
        <mxCell id="-TK9tcclzxAQYpOmF-7F-178" value="&lt;b&gt;参与需求排期&lt;/b&gt;" style="rounded=1;whiteSpace=wrap;html=1;fillColor=#999999;gradientColor=#808080;" vertex="1" parent="1">
          <mxGeometry x="470" y="-510" width="120" height="30" as="geometry" />
        </mxCell>
        <mxCell id="-TK9tcclzxAQYpOmF-7F-179" value="&lt;b&gt;交互稿&lt;/b&gt;" style="rounded=1;whiteSpace=wrap;html=1;fillColor=#999999;gradientColor=#808080;" vertex="1" parent="1">
          <mxGeometry x="410" y="-460" width="50" height="30" as="geometry" />
        </mxCell>
        <mxCell id="-TK9tcclzxAQYpOmF-7F-180" value="&lt;b&gt;视觉稿&lt;/b&gt;" style="rounded=1;whiteSpace=wrap;html=1;fillColor=#999999;gradientColor=#808080;" vertex="1" parent="1">
          <mxGeometry x="410" y="-410" width="50" height="30" as="geometry" />
        </mxCell>
        <mxCell id="-TK9tcclzxAQYpOmF-7F-181" value="&lt;b&gt;参与&lt;br&gt;评审&lt;/b&gt;" style="rounded=0;whiteSpace=wrap;html=1;fillColor=#f5f5f5;gradientColor=#b3b3b3;strokeColor=#666666;" vertex="1" parent="1">
          <mxGeometry x="410" y="-360" width="50" height="280" as="geometry" />
        </mxCell>
        <mxCell id="-TK9tcclzxAQYpOmF-7F-182" value="&lt;b&gt;&lt;font color=&quot;#ffffff&quot;&gt;关键内容确认&lt;/font&gt;&lt;/b&gt;" style="rounded=0;whiteSpace=wrap;html=1;gradientColor=#1A1A1A;fillColor=#000000;" vertex="1" parent="1">
          <mxGeometry x="410" y="-60" width="110" height="30" as="geometry" />
        </mxCell>
        <mxCell id="-TK9tcclzxAQYpOmF-7F-183" value="&lt;b&gt;需求排期&lt;/b&gt;" style="rounded=1;whiteSpace=wrap;html=1;fillColor=#999999;gradientColor=#808080;" vertex="1" parent="1">
          <mxGeometry x="470" y="-360" width="120" height="30" as="geometry" />
        </mxCell>
        <mxCell id="-TK9tcclzxAQYpOmF-7F-184" value="&lt;b&gt;参与需求排期&lt;/b&gt;" style="rounded=1;whiteSpace=wrap;html=1;fillColor=#999999;gradientColor=#808080;" vertex="1" parent="1">
          <mxGeometry x="470" y="-310" width="120" height="30" as="geometry" />
        </mxCell>
        <mxCell id="-TK9tcclzxAQYpOmF-7F-185" value="&lt;b&gt;参与需求排期&lt;/b&gt;" style="rounded=1;whiteSpace=wrap;html=1;fillColor=#999999;gradientColor=#808080;" vertex="1" parent="1">
          <mxGeometry x="470" y="-110" width="120" height="30" as="geometry" />
        </mxCell>
        <mxCell id="-TK9tcclzxAQYpOmF-7F-186" value="&lt;b&gt;参与需求排期&lt;/b&gt;" style="rounded=1;whiteSpace=wrap;html=1;fillColor=#999999;gradientColor=#808080;" vertex="1" parent="1">
          <mxGeometry x="470" y="90" width="120" height="30" as="geometry" />
        </mxCell>
        <mxCell id="-TK9tcclzxAQYpOmF-7F-188" value="&lt;b&gt;代码&lt;br&gt;评审&lt;/b&gt;" style="rounded=0;whiteSpace=wrap;html=1;fillColor=#f5f5f5;gradientColor=#b3b3b3;strokeColor=#666666;" vertex="1" parent="1">
          <mxGeometry x="610" y="-360" width="50" height="80" as="geometry" />
        </mxCell>
        <mxCell id="-TK9tcclzxAQYpOmF-7F-189" value="" style="endArrow=none;dashed=1;html=1;strokeWidth=2;exitX=0.125;exitY=1.34;exitDx=0;exitDy=0;exitPerimeter=0;" edge="1" parent="1">
          <mxGeometry width="50" height="50" relative="1" as="geometry">
            <mxPoint x="660" y="160.20000000000005" as="sourcePoint" />
            <mxPoint x="660" y="-530" as="targetPoint" />
          </mxGeometry>
        </mxCell>
        <mxCell id="-TK9tcclzxAQYpOmF-7F-190" value="&lt;b&gt;代码开发&lt;/b&gt;" style="rounded=1;whiteSpace=wrap;html=1;fillColor=#999999;gradientColor=#808080;" vertex="1" parent="1">
          <mxGeometry x="525" y="-260" width="75" height="30" as="geometry" />
        </mxCell>
        <mxCell id="-TK9tcclzxAQYpOmF-7F-192" value="&lt;b&gt;功能自测&amp;nbsp; &amp;nbsp; &amp;nbsp;功能提测&lt;/b&gt;" style="rounded=1;whiteSpace=wrap;html=1;fillColor=#999999;gradientColor=#808080;align=left;" vertex="1" parent="1">
          <mxGeometry x="610" y="-260" width="120" height="30" as="geometry" />
        </mxCell>
        <mxCell id="-TK9tcclzxAQYpOmF-7F-193" value="&lt;b&gt;功能&lt;br&gt;验收&lt;/b&gt;" style="rounded=0;whiteSpace=wrap;html=1;fillColor=#f5f5f5;gradientColor=#b3b3b3;strokeColor=#666666;" vertex="1" parent="1">
          <mxGeometry x="740" y="-510" width="50" height="130" as="geometry" />
        </mxCell>
        <mxCell id="-TK9tcclzxAQYpOmF-7F-194" value="" style="endArrow=none;dashed=1;html=1;strokeWidth=2;" edge="1" parent="1">
          <mxGeometry width="50" height="50" relative="1" as="geometry">
            <mxPoint x="800" y="160" as="sourcePoint" />
            <mxPoint x="800" y="-670" as="targetPoint" />
          </mxGeometry>
        </mxCell>
        <mxCell id="-TK9tcclzxAQYpOmF-7F-195" value="&lt;b&gt;上线&lt;br&gt;发布&lt;/b&gt;" style="rounded=0;whiteSpace=wrap;html=1;fillColor=#f5f5f5;gradientColor=#b3b3b3;strokeColor=#666666;" vertex="1" parent="1">
          <mxGeometry x="740" y="-360" width="50" height="200" as="geometry" />
        </mxCell>
        <mxCell id="-TK9tcclzxAQYpOmF-7F-196" value="&lt;b&gt;集成测试&lt;/b&gt;" style="rounded=1;whiteSpace=wrap;html=1;fillColor=#999999;gradientColor=#808080;" vertex="1" parent="1">
          <mxGeometry x="660" y="-210" width="70" height="30" as="geometry" />
        </mxCell>
        <mxCell id="-TK9tcclzxAQYpOmF-7F-197" value="" style="endArrow=none;dashed=1;html=1;strokeWidth=2;entryX=0.409;entryY=1.055;entryDx=0;entryDy=0;entryPerimeter=0;" edge="1" parent="1" target="-TK9tcclzxAQYpOmF-7F-150">
          <mxGeometry width="50" height="50" relative="1" as="geometry">
            <mxPoint x="920" y="160" as="sourcePoint" />
            <mxPoint x="920" y="-560" as="targetPoint" />
          </mxGeometry>
        </mxCell>
        <mxCell id="-TK9tcclzxAQYpOmF-7F-198" value="&lt;b&gt;确定&lt;br&gt;并执行&lt;br&gt;改进方案&lt;/b&gt;" style="rounded=0;whiteSpace=wrap;html=1;strokeColor=#666666;gradientColor=#666666;fillColor=#4D4D4D;" vertex="1" parent="1">
          <mxGeometry x="820" y="-510" width="80" height="330" as="geometry" />
        </mxCell>
        <mxCell id="-TK9tcclzxAQYpOmF-7F-199" value="&lt;b&gt;跟踪并落实改进方案&lt;/b&gt;" style="rounded=1;whiteSpace=wrap;html=1;fillColor=#999999;gradientColor=#808080;align=center;" vertex="1" parent="1">
          <mxGeometry x="740" y="-110" width="180" height="30" as="geometry" />
        </mxCell>
        <mxCell id="-TK9tcclzxAQYpOmF-7F-200" value="&lt;b&gt;线上&lt;br&gt;问题&lt;br&gt;收集&lt;/b&gt;" style="rounded=0;whiteSpace=wrap;html=1;fillColor=#f5f5f5;gradientColor=#b3b3b3;strokeColor=#666666;" vertex="1" parent="1">
          <mxGeometry x="940" y="-510" width="50" height="130" as="geometry" />
        </mxCell>
        <mxCell id="-TK9tcclzxAQYpOmF-7F-201" value="&lt;b&gt;解法&lt;br&gt;反馈&lt;br&gt;用户&lt;/b&gt;" style="rounded=0;whiteSpace=wrap;html=1;fillColor=#f5f5f5;gradientColor=#b3b3b3;strokeColor=#666666;" vertex="1" parent="1">
          <mxGeometry x="1060" y="-510" width="50" height="130" as="geometry" />
        </mxCell>
        <mxCell id="-TK9tcclzxAQYpOmF-7F-202" value="&lt;b&gt;线上问题整体状态跟踪&lt;/b&gt;" style="rounded=1;whiteSpace=wrap;html=1;fillColor=#999999;gradientColor=#808080;" vertex="1" parent="1">
          <mxGeometry x="950" y="-360" width="160" height="30" as="geometry" />
        </mxCell>
        <mxCell id="-TK9tcclzxAQYpOmF-7F-203" value="&lt;b&gt;线上&lt;br&gt;问题&lt;br&gt;收集&lt;/b&gt;" style="rounded=0;whiteSpace=wrap;html=1;fillColor=#f5f5f5;gradientColor=#b3b3b3;strokeColor=#666666;" vertex="1" parent="1">
          <mxGeometry x="940" y="-210" width="50" height="80" as="geometry" />
        </mxCell>
        <mxCell id="-TK9tcclzxAQYpOmF-7F-204" value="&lt;b&gt;解法&lt;br&gt;反馈&lt;br&gt;用户&lt;/b&gt;" style="rounded=0;whiteSpace=wrap;html=1;fillColor=#f5f5f5;gradientColor=#b3b3b3;strokeColor=#666666;" vertex="1" parent="1">
          <mxGeometry x="1060" y="-210" width="50" height="80" as="geometry" />
        </mxCell>
        <mxCell id="-TK9tcclzxAQYpOmF-7F-205" value="&lt;b&gt;业务目标跟踪&lt;/b&gt;" style="rounded=1;whiteSpace=wrap;html=1;fillColor=#999999;gradientColor=#808080;" vertex="1" parent="1">
          <mxGeometry x="990" y="-160" width="70" height="30" as="geometry" />
        </mxCell>
        <mxCell id="-TK9tcclzxAQYpOmF-7F-206" value="&lt;b&gt;线上&lt;br&gt;问题&lt;br&gt;解决&lt;br&gt;&lt;/b&gt;" style="rounded=0;whiteSpace=wrap;html=1;fillColor=#f5f5f5;gradientColor=#b3b3b3;strokeColor=#666666;" vertex="1" parent="1">
          <mxGeometry x="990" y="-260" width="70" height="80" as="geometry" />
        </mxCell>
        <mxCell id="-TK9tcclzxAQYpOmF-7F-207" value="&lt;b&gt;重点问题推进&lt;/b&gt;" style="rounded=1;whiteSpace=wrap;html=1;fillColor=#999999;gradientColor=#808080;" vertex="1" parent="1">
          <mxGeometry x="980" y="-110" width="100" height="30" as="geometry" />
        </mxCell>
        <mxCell id="-TK9tcclzxAQYpOmF-7F-208" value="&lt;b&gt;业务目标跟踪&lt;/b&gt;" style="rounded=1;whiteSpace=wrap;html=1;fillColor=#999999;gradientColor=#808080;" vertex="1" parent="1">
          <mxGeometry x="980" y="90" width="100" height="30" as="geometry" />
        </mxCell>
        <mxCell id="-TK9tcclzxAQYpOmF-7F-210" value="" style="endArrow=none;dashed=1;html=1;strokeWidth=1;entryX=1;entryY=1;entryDx=0;entryDy=0;" edge="1" parent="1">
          <mxGeometry width="50" height="50" relative="1" as="geometry">
            <mxPoint x="464.29" y="125" as="sourcePoint" />
            <mxPoint x="464.29" y="-515" as="targetPoint" />
          </mxGeometry>
        </mxCell>
        <mxCell id="-TK9tcclzxAQYpOmF-7F-211" value="" style="endArrow=none;dashed=1;html=1;strokeWidth=1;entryX=1;entryY=1;entryDx=0;entryDy=0;" edge="1" parent="1">
          <mxGeometry width="50" height="50" relative="1" as="geometry">
            <mxPoint x="594" y="125" as="sourcePoint" />
            <mxPoint x="594" y="-515" as="targetPoint" />
          </mxGeometry>
        </mxCell>
        <mxCell id="-TK9tcclzxAQYpOmF-7F-212" value="" style="endArrow=none;dashed=1;html=1;strokeWidth=1;" edge="1" parent="1">
          <mxGeometry width="50" height="50" relative="1" as="geometry">
            <mxPoint x="465" y="129" as="sourcePoint" />
            <mxPoint x="595" y="129" as="targetPoint" />
          </mxGeometry>
        </mxCell>
      </root>
    </mxGraphModel>
  </diagram>
</mxfile>
